Coordinates
version=1
nRows=12
nColumns=46
inDegrees=yes

Units are S.I. units (second, meters, Newtons, ...)
Angles are in degrees.

endheader
time	pelvis_tilt	pelvis_list	pelvis_rotation	pelvis_tx	pelvis_ty	pelvis_tz	bb_angle	bb_tx	bb_ty	bb_tz	hip_flexion_r	hip_adduction_r	hip_rotation_r	knee_angle_r	knee_angle_r_beta	ankle_angle_r	subtalar_angle_r	mtp_angle_r	crank_angle_r	hip_flexion_l	hip_adduction_l	hip_rotation_l	knee_angle_l	knee_angle_l_beta	ankle_angle_l	subtalar_angle_l	mtp_angle_l	crank_angle_l	lumbar_extension	lumbar_bending	lumbar_rotation	arm_flex_r	arm_add_r	arm_rot_r	elbow_flex_r	pro_sup_r	wrist_flex_r	wrist_dev_r	arm_flex_l	arm_add_l	arm_rot_l	elbow_flex_l	pro_sup_l	wrist_flex_l	wrist_dev_l
      7.50500000	    -10.39625532	      9.15700780	      5.30276147	      0.17412122	      1.06844136	     -0.29933344	      0.00000000	      0.50000000	      0.00000000	      0.25000000	     39.74504859	    -16.64654713	     -2.51386044	     41.21689438	      0.71937051	    -23.39067781	     -5.78468857	      0.00000000	      0.00000000	     90.56850714	      0.83139228	     -1.13700918	    112.37725415	      1.96135309	     -4.86241081	     -6.50153206	      0.00000000	      0.00000000	    -65.78444777	     -7.41962100	     -6.04051636	     89.31628956	    -17.16867798	     38.29917989	     31.99037652	     26.49190344	      0.00000000	      0.00000000	     89.70282760	      1.61869460	     28.73809392	     41.63062520	     29.22682169	      0.00000000	      0.00000000
      7.51000000	    -10.45497076	      9.03670011	      5.27792758	      0.17327923	      1.06934661	     -0.29890293	      0.00000000	      0.50000000	      0.00000000	      0.25000000	     40.16675505	    -16.45645947	     -2.15274391	     42.71046463	      0.74543823	    -23.92449857	     -6.52377666	      0.00000000	      0.00000000	     90.47891949	      0.71896409	     -1.23819424	    111.09619161	      1.93899433	     -4.23136436	     -6.67076721	      0.00000000	      0.00000000	    -65.81963147	     -7.65308239	     -6.00195584	     89.36230504	    -17.40173444	     39.28614241	     31.31857867	     27.64750673	      0.00000000	      0.00000000	     89.70308707	      2.03485958	     27.70669589	     41.92165504	     28.00432579	      0.00000000	      0.00000000
      7.51500000	    -10.46683840	      8.96819607	      5.25205248	      0.17253811	      1.07030774	     -0.29853956	      0.00000000	      0.50000000	      0.00000000	      0.25000000	     40.60145628	    -16.30859486	     -1.76223239	     44.32772732	      0.77366479	    -24.24954635	     -7.27292756	      0.00000000	      0.00000000	     90.09114079	      0.64739539	     -1.36053464	    109.62999683	      1.91340440	     -3.22276182	     -6.58457281	      0.00000000	      0.00000000	    -65.93564676	     -7.84771236	     -5.95052873	     89.34014131	    -17.16996499	     37.29523624	     31.13913093	     28.71465911	      0.00000000	      0.00000000	     89.71029513	      2.38358797	     27.10643273	     41.82943210	     28.79350011	      0.00000000	      0.00000000
      7.52000000	    -10.32124439	      8.92354799	      5.17791906	      0.17180854	      1.07143213	     -0.29840449	      0.00000000	      0.50000000	      0.00000000	      0.25000000	     40.99301511	    -16.21407297	     -1.44563365	     46.08207743	      0.80428398	    -24.78553489	     -8.07539903	      0.00000000	      0.00000000	     89.35689404	      0.60872019	     -1.49182079	    108.06160216	      1.88603075	     -2.11090960	     -6.65733571	      0.00000000	      0.00000000	    -66.34559963	     -8.01576593	     -5.88210729	     89.32444935	    -17.45393569	     35.72463511	     31.92368629	     29.55775420	      0.00000000	      0.00000000	     89.71331942	      2.56185458	     26.39031641	     42.62147672	     29.61296449	      0.00000000	      0.00000000
      7.52500000	    -10.53789507	      8.50592907	      5.05712577	      0.17105426	      1.07144587	     -0.29811894	      0.00000000	      0.50000000	      0.00000000	      0.25000000	     41.90336586	    -15.66754031	     -1.01053522	     48.13513351	      0.84011657	    -24.95363688	     -8.70285168	      0.00000000	      0.00000000	     88.99471242	      0.39506765	     -1.24157425	    106.44938401	      1.85789224	     -0.83043937	     -6.34865655	      0.00000000	      0.00000000	    -66.06618253	     -8.10307082	     -5.52727233	     89.39063790	    -17.79335709	     38.48131268	     31.67765623	     27.03896259	      0.00000000	      0.00000000	     89.71332963	      2.48189404	     27.31220993	     43.69001832	     22.69729225	      0.00000000	      0.00000000
      7.53000000	    -10.57990739	      8.01921419	      5.11822987	      0.17007423	      1.07202413	     -0.29805839	      0.00000000	      0.50000000	      0.00000000	      0.25000000	     42.49668033	    -15.15651364	     -0.67744775	     49.99476834	      0.87257332	    -25.15174956	     -8.96101414	      0.00000000	      0.00000000	     88.20814331	      0.39616709	     -0.97587521	    104.50098681	      1.82388629	      0.23818426	     -6.56233360	      0.00000000	      0.00000000	    -66.07077660	     -7.84368914	     -5.11317567	     89.42666229	    -17.79773969	     38.44925532	     31.69791626	     27.03378443	      0.00000000	      0.00000000	     89.71795351	      2.44884357	     27.28429316	     43.81112325	     22.71648540	      0.00000000	      0.00000000
      7.53500000	    -10.59577942	      7.78068931	      4.97775277	      0.16959468	      1.07220083	     -0.29787010	      0.00000000	      0.50000000	      0.00000000	      0.25000000	     43.36254907	    -14.83679915	     -0.38955494	     52.35339536	      0.91373912	    -25.06924421	     -9.79836754	      0.00000000	      0.00000000	     87.26768289	      0.26042427	     -0.95775635	    102.63199992	      1.79126632	      1.67664151	     -6.60398326	      0.00000000	      0.00000000	    -66.15296946	     -8.00175785	     -4.88803898	     89.42835827	    -18.01124991	     38.31237262	     31.78638059	     27.02526830	      0.00000000	      0.00000000	     89.71812410	      2.48090449	     27.25728023	     44.07466914	     22.76040304	      0.00000000	      0.00000000
      7.54000000	    -10.59457395	      7.59656612	      4.80126281	      0.16909945	      1.07253655	     -0.29771613	      0.00000000	      0.50000000	      0.00000000	      0.25000000	     44.16134923	    -14.44235297	      0.21988180	     54.57194015	      0.95246003	    -24.92061408	    -10.49975951	      0.00000000	      0.00000000	     86.14662764	      0.14094264	     -1.00287041	    100.55109775	      1.75494772	      2.97294577	     -6.62783777	      0.00000000	      0.00000000	    -66.25996978	     -8.11112387	     -4.66096770	     89.43308523	    -18.22456425	     38.13254026	     32.02789954	     27.03844358	      0.00000000	      0.00000000	     89.71981218	      2.48967912	     27.20313201	     44.40400735	     22.81412470	      0.00000000	      0.00000000
      7.54500000	    -10.51699261	      7.08577285	      4.65009003	      0.16851868	      1.07267842	     -0.29740468	      0.00000000	      0.50000000	      0.00000000	      0.25000000	     44.88032930	    -13.78595523	      0.54412783	     56.82978432	      0.99186685	    -24.80584567	    -10.86312321	      0.00000000	      0.00000000	     84.96066077	     -0.06018257	     -0.74143738	     98.40329940	      1.71746157	      4.00263300	     -6.85713900	      0.00000000	      0.00000000	    -66.36608392	     -7.98337930	     -4.13704797	     89.44870203	    -18.27634747	     38.02266619	     32.23627219	     27.05858953	      0.00000000	      0.00000000	     89.71669894	      2.35518910	     27.12956665	     44.61805105	     22.84770311	      0.00000000	      0.00000000
      7.55000000	    -10.34416658	      7.07374074	      4.41956111	      0.16836643	      1.07322663	     -0.29730493	      0.00000000	      0.50000000	      0.00000000	      0.25000000	     45.60132412	    -13.54714528	      1.19146643	     59.19209876	      1.03309701	    -24.42836834	    -11.26152316	      0.00000000	      0.00000000	     83.40641821	     -0.22786814	     -1.07344595	     96.07076351	      1.67675114	      5.04776563	     -6.97237291	      0.00000000	      0.00000000	    -66.74009598	     -8.14287983	     -4.01938111	     89.43207913	    -18.58143648	     37.62873788	     32.93793348	     27.13164628	      0.00000000	      0.00000000	     89.71672339	      2.29195037	     27.06751291	     45.17234402	     22.94273351	      0.00000000	      0.00000000
      7.55500000	    -10.18090374	      6.78722192	      4.26048024	      0.16804305	      1.07344093	     -0.29727859	      0.00000000	      0.50000000	      0.00000000	      0.25000000	     46.30080026	    -13.11751731	      1.63441969	     61.55810218	      1.07439156	    -23.85195491	    -11.35711009	      0.00000000	      0.00000000	     81.91887231	     -0.31001764	     -1.12759012	     93.64872053	      1.63447851	      5.54542929	     -7.77787851	      0.00000000	      0.00000000	    -67.04375934	     -8.03664388	     -3.70011277	     89.42300507	    -18.78733587	     37.02168326	     33.92501202	     27.23136242	      0.00000000	      0.00000000	     89.71331050	      2.05789878	     26.97494105	     45.81316375	     23.05154905	      0.00000000	      0.00000000
      7.56000000	    -10.02170929	      6.18947449	      4.06363931	      0.16785553	      1.07347495	     -0.29742188	      0.00000000	      0.50000000	      0.00000000	      0.25000000	     46.97811487	    -12.41671847	      1.86965508	     63.82472659	      1.11395162	    -23.64060222	    -11.51025209	      0.00000000	      0.00000000	     80.48078364	     -0.51353330	     -0.79077839	     91.26462298	      1.59286816	      5.96984191	     -8.10096399	      0.00000000	      0.00000000	    -67.15222444	     -7.70970340	     -3.05436103	     89.44052735	    -18.72028780	     36.96715828	     34.03981467	     27.24515301	      0.00000000	      0.00000000	     89.70557613	      1.83179396	     26.89453402	     45.89221523	     23.06266240	      0.00000000	      0.00000000
